<?xml version="1.0" encoding="UTF-8"?> <svg xmlns="http://www.w3.org/2000/svg" fill="none" height="166" viewBox="0 0 166 166" width="166"><path d="m165.997 0h-165.997v165.997h165.997z" fill="#ff5f46"></path><g clip-rule="evenodd" fill="#fff" fill-rule="evenodd"><path d="m74.5461 42.7881h16.8213l2.4185 9.1365c1.1529.4091 2.272.8741 3.388 1.4288l8.1371-4.7393 11.903 11.9029-4.739 8.1373c.555 1.1166 1.02 2.2364 1.429 3.3899l9.049 2.4191v16.8162l-9.047 2.4187c-.402 1.147-.865 2.3073-1.424 3.4029l4.732 8.1249-11.903 11.903-8.7518-5.098 1.3085-2.246 7.0213 4.089 9.07-9.07-4.463-7.6647.364-.6486c.722-1.2824 1.298-2.7536 1.807-4.2804l.221-.664 8.465-2.263v-12.8238l-8.465-2.263-.221-.664c-.501-1.5031-1.081-2.909-1.822-4.3095l-.338-.6384 4.452-7.6454-9.07-9.0704-7.6455 4.4528-.6383-.3379c-1.4005-.7415-2.8064-1.3213-4.3095-1.8223l-.666-.222-2.2636-8.5513h-12.8187l-2.2636 8.5513-.6659.222c-1.5032.501-2.909 1.0808-4.3095 1.8223l-.6384.3379-7.6455-4.4528-9.0704 9.0704 4.4529 7.6454-.338.6384c-.7414 1.4005-1.3212 2.8064-1.8223 4.3095l-.222.666-8.5513 2.2636v12.8187l8.5513 2.2635.222.666c.5011 1.5032 1.0809 2.909 1.8223 4.3095l.338.6384-4.4529 7.6458 9.0704 9.07 7.0213-4.089 1.3086 2.246-8.7521 5.098-11.9029-11.903 4.7393-8.1375c-.5547-1.116-1.0196-2.2351-1.4288-3.3879l-9.1365-2.4185v-16.8213l9.1365-2.4185c.4092-1.1529.8741-2.272 1.4288-3.388l-4.7393-8.1373 11.9029-11.9029 8.1374 4.7393c1.116-.5547 2.2351-1.0197 3.3879-1.4288z"></path><path d="m78.9268 64.8027v14.2121c0 2.3085 1.916 4.2257 4.2957 4.1605 2.1752-.0642 4.0244-2.02 4.0244-4.4205v-13.9521l1.7207.5887c7.1007 2.4292 12.2324 9.2417 12.2324 17.1767 0 5.4167-2.3393 10.1812-6.0635 13.533l-.006.0053c-2.0909 1.8587-3.377 4.4626-3.377 7.2616v29.12h-2.6v-29.12c0-3.613 1.6594-6.9009 4.2467-9.2022 3.2074-2.8881 5.2-6.9625 5.2-11.5977 0-6.1376-3.5874-11.4947-8.7533-14.0068v10.1935c0 3.6659-2.8307 6.9101-6.5485 7.0194l-.0021.0001c-3.8596.1072-6.9694-3.0019-6.9694-6.7595v-10.4535c-5.166 2.5121-8.7534 7.8692-8.7534 14.0068 0 4.5536 1.9967 8.7147 5.203 11.6004l.0068.0061.0068.0063c2.5629 2.3731 4.2301 5.6507 4.2301 9.1871v29.207h-2.6v-29.207c0-2.701-1.2769-5.3138-3.3901-7.2733-3.7229-3.3541-6.0566-8.2035-6.0566-13.5266 0-7.935 5.1319-14.7475 12.2326-17.1767z"></path><path d="m83.0001 34.8144c-26.5821 0-48.1867 21.6046-48.1867 48.1866 0 21.771 14.429 40.17 34.2626 46.162l-.7519 2.489c-20.8997-6.314-36.1107-25.702-36.1107-48.651 0-28.0179 22.7687-50.7866 50.7867-50.7866 28.1059 0 50.7869 22.7701 50.7869 50.7866 0 22.947-15.21 42.426-36.2039 48.653l-.7394-2.493c19.9123-5.906 34.3433-24.387 34.3433-46.16 0-26.5835-21.52-48.1866-48.1869-48.1866z"></path></g></svg> 