<?xml version="1.0" standalone="no"?>
<!DOCTYPE svg PUBLIC "-//W3C//DTD SVG 20010904//EN"
 "http://www.w3.org/TR/2001/REC-SVG-20010904/DTD/svg10.dtd">
<svg version="1.0" xmlns="http://www.w3.org/2000/svg"
 width="2000.000000pt" height="1999.000000pt" viewBox="0 0 2000.000000 1999.000000"
 preserveAspectRatio="xMidYMid meet">

<g transform="translate(0.000000,1999.000000) scale(0.100000,-0.100000)"
fill="#000000" stroke="none">
<path d="M11680 19802 l0 -37 100 -17 c240 -41 639 -134 935 -218 1421 -402
2756 -1137 3870 -2129 1861 -1658 3028 -3938 3274 -6401 39 -385 46 -539 46
-1005 0 -466 -7 -620 -46 -1005 -156 -1556 -684 -3061 -1533 -4370 -1374
-2119 -3487 -3633 -5911 -4239 -215 -54 -457 -106 -652 -142 l-123 -23 0 -38
c0 -33 3 -38 18 -34 9 3 49 10 87 16 145 23 471 92 685 146 1109 277 2166 746
3113 1381 1301 871 2361 2008 3139 3366 126 220 362 690 462 917 725 1653 987
3442 770 5245 -167 1386 -625 2713 -1358 3935 -617 1031 -1468 1987 -2433
2736 -1166 906 -2525 1544 -3963 1863 -118 26 -456 91 -474 91 -3 0 -6 -17 -6
-38z"/>
<path d="M11626 18233 c-3 -664 -9 -3011 -12 -5215 l-7 -4008 -42 -24 c-48
-29 -88 -85 -105 -147 -15 -52 -19 -305 -8 -419 10 -110 54 -188 122 -218 l29
-13 -6 -3825 c-5 -2455 -4 -3824 2 -3824 6 0 106 18 223 41 1328 252 2640 816
3749 1610 658 470 1274 1042 1796 1667 838 1001 1479 2204 1839 3452 318 1099
439 2231 359 3360 -139 1968 -865 3812 -2107 5351 -394 490 -899 996 -1393
1400 -1092 892 -2378 1539 -3730 1875 -201 50 -542 122 -656 139 l-46 7 -7
-1209z m-18 -9780 l-3 -148 -23 35 c-22 34 -22 40 -20 265 3 211 5 232 23 260
l20 29 3 -147 c1 -81 1 -213 0 -294z"/>
<path d="M9590 13579 c-525 -46 -929 -230 -1056 -481 -50 -99 -56 -153 -52
-518 3 -324 4 -337 27 -395 78 -197 257 -336 563 -436 380 -125 919 -144 1353
-48 352 78 614 237 710 433 50 100 58 186 53 540 -4 240 -8 301 -22 346 -88
278 -437 474 -971 545 -146 20 -461 27 -605 14z m599 -304 c218 -31 433 -100
552 -175 71 -46 134 -120 148 -175 15 -61 0 -112 -53 -172 -208 -237 -875
-347 -1459 -242 -288 52 -520 168 -581 291 -31 61 -32 98 -7 155 76 166 399
294 851 337 93 8 439 -3 549 -19z"/>
<path d="M8485 11878 c-4 -35 -5 -202 -3 -373 4 -331 7 -350 62 -445 139 -243
513 -409 1030 -459 60 -6 115 -11 122 -11 6 0 21 38 33 88 45 176 145 348 280
475 88 83 141 119 255 173 270 128 612 120 863 -21 25 -14 50 -25 55 -25 12 0
7 629 -5 648 -7 10 -23 -1 -65 -40 -254 -241 -717 -378 -1277 -378 -558 0
-1018 133 -1264 366 -38 35 -71 64 -74 64 -3 0 -8 -28 -12 -62z"/>
<path d="M10545 11280 c-468 -74 -790 -529 -701 -992 80 -419 455 -710 881
-685 315 19 581 201 714 489 60 129 75 201 74 358 0 116 -4 147 -27 223 -88
295 -313 514 -601 588 -93 23 -253 32 -340 19z m335 -455 l0 -175 175 0 175 0
0 -205 0 -205 -175 0 -175 0 0 -175 0 -175 -205 0 -205 0 0 175 0 175 -175 0
-175 0 0 205 0 205 175 0 175 0 0 175 0 175 205 0 205 0 0 -175z"/>
<path d="M8485 10838 c-4 -29 -5 -197 -3 -373 4 -361 6 -369 90 -496 145 -217
525 -374 1013 -419 196 -18 611 -5 638 20 4 4 -23 24 -60 46 -96 55 -256 216
-321 323 -83 136 -142 332 -142 472 l0 47 -67 7 c-268 25 -442 57 -614 115
-194 64 -369 163 -469 265 -24 25 -47 45 -51 45 -4 0 -10 -24 -14 -52z"/>
<path d="M4230 9139 l0 -191 -30 26 c-44 36 -96 49 -183 45 -65 -4 -82 -9
-119 -34 -23 -17 -56 -50 -73 -74 l-30 -43 -3 -255 -3 -256 26 -53 c69 -141
258 -179 390 -79 l45 35 22 -35 c15 -23 31 -35 46 -35 l22 0 0 570 0 570 -55
0 -55 0 0 -191z m-62 -239 c56 -34 62 -63 62 -307 0 -243 -4 -261 -72 -304
-45 -28 -163 -24 -205 7 -58 42 -63 68 -63 304 0 238 5 261 65 300 43 28 166
28 213 0z"/>
<path d="M9190 8760 l0 -570 55 0 55 0 0 570 0 570 -55 0 -55 0 0 -570z"/>
<path d="M9540 9260 l0 -70 60 0 60 0 0 70 0 70 -60 0 -60 0 0 -70z"/>
<path d="M5385 9211 l-40 -6 -3 -97 -3 -98 -69 0 -70 0 0 -50 0 -50 69 0 70 0
3 -282 3 -283 28 -48 c15 -26 47 -60 69 -75 36 -23 54 -27 130 -30 l88 -4 0
51 0 51 -59 0 c-77 0 -106 12 -131 52 -19 31 -20 51 -20 301 l0 267 105 0 105
0 0 50 0 50 -105 0 -105 0 0 105 c0 78 -3 105 -12 104 -7 -1 -31 -5 -53 -8z"/>
<path d="M9995 9211 l-40 -6 -3 -97 -3 -98 -69 0 -70 0 0 -50 0 -50 69 0 70 0
3 -282 3 -283 28 -48 c15 -26 47 -60 69 -75 36 -23 54 -27 130 -30 l88 -4 0
51 0 51 -60 0 c-35 0 -74 7 -90 15 -57 29 -60 48 -60 340 l0 265 105 0 105 0
0 50 0 50 -105 0 -105 0 0 105 c0 78 -3 105 -12 104 -7 -1 -31 -5 -53 -8z"/>
<path d="M4675 9001 c-73 -33 -128 -107 -141 -189 l-6 -41 38 -6 c22 -4 47 -9
57 -12 14 -3 17 2 17 32 0 88 57 135 164 135 120 0 166 -49 166 -178 l0 -69
-127 -5 c-143 -6 -187 -19 -241 -71 -156 -150 -65 -407 151 -424 79 -7 134 9
191 52 l45 34 21 -34 c15 -25 29 -35 46 -35 l25 0 -3 323 c-3 284 -5 327 -21
362 -24 53 -72 103 -122 126 -56 26 -204 26 -260 0z m295 -518 c0 -158 -37
-205 -163 -211 -59 -2 -78 1 -105 17 -97 62 -97 211 0 271 28 17 51 20 151 20
l117 0 0 -97z"/>
<path d="M5975 9001 c-77 -36 -135 -120 -135 -195 0 -30 4 -36 25 -41 14 -3
36 -7 50 -10 22 -5 25 -2 25 22 0 40 36 106 69 126 42 25 155 23 198 -3 47
-28 63 -67 63 -153 l0 -74 -128 -5 c-149 -5 -199 -23 -255 -89 -87 -101 -72
-277 29 -354 101 -77 256 -71 346 12 l26 25 24 -36 c15 -23 31 -36 46 -36 l22
0 0 314 c0 338 -3 364 -55 432 -13 17 -48 44 -77 58 -45 22 -65 26 -142 26
-67 0 -101 -5 -131 -19z m295 -527 c0 -122 -11 -149 -70 -183 -48 -27 -140
-28 -190 -3 -47 23 -74 74 -74 137 0 63 27 114 74 137 27 14 60 18 148 18
l112 0 0 -106z"/>
<path d="M7072 8994 c-29 -14 -64 -41 -78 -60 -49 -63 -53 -92 -53 -339 -1
-221 0 -232 23 -280 28 -60 66 -97 126 -124 84 -38 212 -21 272 36 l28 27 0
-197 0 -197 50 0 50 0 0 575 c0 560 0 575 -19 575 -11 0 -28 -15 -41 -35 -25
-40 -31 -42 -54 -16 -59 65 -210 82 -304 35z m245 -94 c66 -40 68 -50 68 -300
0 -207 -2 -228 -20 -259 -28 -48 -77 -71 -148 -71 -42 0 -70 6 -97 21 -67 38
-70 49 -70 304 0 251 4 269 63 305 45 28 159 28 204 0z"/>
<path d="M8563 9000 c-76 -39 -133 -122 -133 -194 0 -30 4 -36 25 -41 14 -3
36 -7 50 -10 21 -5 25 -2 25 20 0 40 24 88 59 118 29 24 41 27 104 27 125 0
167 -44 167 -173 l0 -74 -128 -5 c-107 -4 -137 -8 -175 -27 -154 -74 -186
-284 -62 -404 91 -89 264 -89 357 0 l26 25 24 -36 c15 -24 31 -36 46 -36 l23
0 -3 333 -3 334 -30 49 c-19 30 -49 60 -79 79 -45 27 -58 30 -150 33 -87 3
-107 0 -143 -18z m297 -526 c0 -122 -11 -149 -70 -183 -49 -27 -141 -29 -190
-2 -100 53 -100 223 0 273 27 14 60 18 148 18 l112 0 0 -106z"/>
<path d="M7680 8693 c0 -198 4 -333 11 -358 14 -53 99 -136 155 -153 93 -27
189 -10 255 46 38 33 41 34 54 16 8 -11 17 -27 20 -36 4 -11 16 -18 31 -18
l24 0 0 410 0 410 -55 0 -55 0 0 -321 c0 -360 -1 -363 -72 -400 -80 -41 -203
-16 -240 49 -16 27 -18 63 -18 351 l0 321 -55 0 -55 0 0 -317z"/>
<path d="M9550 8600 l0 -410 50 0 50 0 0 410 0 410 -50 0 -50 0 0 -410z"/>
<path d="M10360 9000 c0 -5 58 -174 129 -375 l129 -365 -69 -190 c-38 -105
-69 -195 -69 -200 0 -6 22 -10 49 -10 49 0 49 0 64 43 8 23 101 280 206 570
105 291 191 530 191 533 0 2 -24 4 -53 4 l-52 0 -105 -305 c-57 -167 -106
-302 -108 -300 -2 2 -50 138 -106 302 l-103 298 -52 3 c-31 2 -51 -1 -51 -8z"/>
<path d="M9915 7650 c-71 -4 -140 -8 -152 -9 l-23 -1 0 -604 c0 -392 4 -607
10 -611 5 -3 97 -9 202 -12 160 -5 208 -3 278 11 117 24 198 65 279 142 112
105 167 238 178 429 15 266 -93 487 -287 589 -118 62 -248 80 -485 66z m320
-170 c170 -58 263 -205 273 -425 11 -270 -105 -443 -328 -485 -58 -11 -202
-13 -237 -4 l-23 6 0 464 0 464 128 0 c103 0 141 -4 187 -20z"/>
<path d="M3830 7641 l-45 -6 0 -605 0 -605 88 -3 87 -3 0 271 0 272 68 -7
c171 -18 244 -79 337 -280 33 -71 76 -162 95 -202 l35 -72 78 36 c42 20 77 39
77 43 0 16 -165 359 -191 396 -29 43 -115 124 -130 124 -24 0 -4 17 39 32 144
52 222 156 222 299 0 148 -97 260 -265 304 -45 11 -107 15 -255 13 -107 0
-215 -4 -240 -7z m465 -160 c63 -28 83 -46 106 -96 24 -51 24 -99 0 -150 -23
-51 -54 -78 -116 -106 -40 -18 -74 -23 -187 -27 l-138 -5 0 201 0 201 28 4
c15 3 79 4 142 3 93 -2 125 -7 165 -25z"/>
<path d="M6660 7565 l0 -75 185 0 185 0 0 -535 0 -535 90 0 90 0 0 535 0 535
185 0 185 0 0 75 0 75 -460 0 -460 0 0 -75z"/>
</g>
</svg>
